<mxfile host="app.diagrams.net" modified="2023-04-14T23:19:04.623Z" agent="Mozilla/5.0 (Windows NT 10.0; Win64; x64) AppleWebKit/537.36 (KHTML, like Gecko) Chrome/112.0.0.0 Safari/537.36 Edg/112.0.1722.39" etag="aaHj3DQ0FptWNPiwjzko" version="21.1.8" type="github" pages="2">
  <diagram name="Page-1" id="c37626ed-c26b-45fb-9056-f9ebc6bb27b6">
    <mxGraphModel dx="2534" dy="1614" grid="1" gridSize="10" guides="1" tooltips="1" connect="1" arrows="1" fold="1" page="1" pageScale="1" pageWidth="1100" pageHeight="850" background="none" math="0" shadow="0">
      <root>
        <mxCell id="0" />
        <mxCell id="1" parent="0" />
        <mxCell id="273JVjAkvQsYtaxaopv8-7" value="" style="group" parent="1" vertex="1" connectable="0">
          <mxGeometry x="390" y="-240" width="210" height="170" as="geometry" />
        </mxCell>
        <mxCell id="273JVjAkvQsYtaxaopv8-8" value="" style="shape=mxgraph.cisco.servers.fileserver;sketch=0;html=1;pointerEvents=1;dashed=0;fillColor=#036897;strokeColor=#ffffff;strokeWidth=2;verticalLabelPosition=bottom;verticalAlign=top;align=center;outlineConnect=0;" parent="273JVjAkvQsYtaxaopv8-7" vertex="1">
          <mxGeometry x="70" width="63.81" height="92" as="geometry" />
        </mxCell>
        <mxCell id="273JVjAkvQsYtaxaopv8-9" value="Autorité de Certification&lt;br style=&quot;font-size: 14px;&quot;&gt;&lt;font style=&quot;font-size: 14px;&quot;&gt;CA (&lt;i&gt;STEPCA server)&lt;/i&gt;&lt;br&gt;&lt;/font&gt;" style="shape=note;whiteSpace=wrap;html=1;backgroundOutline=1;fontColor=#000000;darkOpacity=0.05;fillColor=#ffffff;strokeColor=none;fillStyle=solid;direction=west;gradientDirection=north;gradientColor=#ffffff;shadow=1;size=20;pointerEvents=1;fontSize=14;" parent="273JVjAkvQsYtaxaopv8-7" vertex="1">
          <mxGeometry x="-70" y="110" width="280" height="60" as="geometry" />
        </mxCell>
        <mxCell id="273JVjAkvQsYtaxaopv8-10" value="" style="shape=mxgraph.cisco.servers.fileserver;sketch=0;html=1;pointerEvents=1;dashed=0;fillColor=#036897;strokeColor=#ffffff;strokeWidth=2;verticalLabelPosition=bottom;verticalAlign=top;align=center;outlineConnect=0;" parent="273JVjAkvQsYtaxaopv8-7" vertex="1">
          <mxGeometry x="80" y="10" width="63.81" height="92" as="geometry" />
        </mxCell>
        <mxCell id="273JVjAkvQsYtaxaopv8-31" style="edgeStyle=orthogonalEdgeStyle;rounded=0;orthogonalLoop=1;jettySize=auto;html=1;" parent="273JVjAkvQsYtaxaopv8-7" source="273JVjAkvQsYtaxaopv8-10" target="273JVjAkvQsYtaxaopv8-8" edge="1">
          <mxGeometry relative="1" as="geometry">
            <mxPoint x="-54" y="-50" as="sourcePoint" />
            <mxPoint x="30" y="-60" as="targetPoint" />
            <Array as="points">
              <mxPoint x="10" y="30" />
              <mxPoint x="10" y="-60" />
              <mxPoint x="102" y="-60" />
            </Array>
          </mxGeometry>
        </mxCell>
        <mxCell id="273JVjAkvQsYtaxaopv8-11" value="" style="group" parent="1" vertex="1" connectable="0">
          <mxGeometry x="760" width="180" height="150" as="geometry" />
        </mxCell>
        <mxCell id="273JVjAkvQsYtaxaopv8-12" value="" style="shape=mxgraph.cisco.servers.fileserver;sketch=0;html=1;pointerEvents=1;dashed=0;fillColor=#036897;strokeColor=#ffffff;strokeWidth=2;verticalLabelPosition=bottom;verticalAlign=top;align=center;outlineConnect=0;" parent="273JVjAkvQsYtaxaopv8-11" vertex="1">
          <mxGeometry x="70" width="63.81" height="92" as="geometry" />
        </mxCell>
        <mxCell id="273JVjAkvQsYtaxaopv8-13" value="Autorité de&amp;nbsp; Sequestre" style="shape=note;whiteSpace=wrap;html=1;backgroundOutline=1;fontColor=#000000;darkOpacity=0.05;fillColor=#ffffff;strokeColor=none;fillStyle=solid;direction=west;gradientDirection=north;gradientColor=#ffffff;shadow=1;size=20;pointerEvents=1;fontSize=14;" parent="273JVjAkvQsYtaxaopv8-11" vertex="1">
          <mxGeometry y="110" width="180" height="40" as="geometry" />
        </mxCell>
        <mxCell id="273JVjAkvQsYtaxaopv8-14" value="" style="shape=mxgraph.cisco.servers.fileserver;sketch=0;html=1;pointerEvents=1;dashed=0;fillColor=#036897;strokeColor=#ffffff;strokeWidth=2;verticalLabelPosition=bottom;verticalAlign=top;align=center;outlineConnect=0;" parent="273JVjAkvQsYtaxaopv8-11" vertex="1">
          <mxGeometry x="80" y="10" width="63.81" height="92" as="geometry" />
        </mxCell>
        <mxCell id="273JVjAkvQsYtaxaopv8-19" value="" style="group" parent="1" vertex="1" connectable="0">
          <mxGeometry x="740" y="300" width="180" height="150" as="geometry" />
        </mxCell>
        <mxCell id="273JVjAkvQsYtaxaopv8-20" value="" style="shape=mxgraph.cisco.servers.fileserver;sketch=0;html=1;pointerEvents=1;dashed=0;fillColor=#036897;strokeColor=#ffffff;strokeWidth=2;verticalLabelPosition=bottom;verticalAlign=top;align=center;outlineConnect=0;" parent="273JVjAkvQsYtaxaopv8-19" vertex="1">
          <mxGeometry x="70" width="63.81" height="92" as="geometry" />
        </mxCell>
        <mxCell id="273JVjAkvQsYtaxaopv8-21" value="Annuaire des Certificats (LDAP)" style="shape=note;whiteSpace=wrap;html=1;backgroundOutline=1;fontColor=#000000;darkOpacity=0.05;fillColor=#ffffff;strokeColor=none;fillStyle=solid;direction=west;gradientDirection=north;gradientColor=#ffffff;shadow=1;size=20;pointerEvents=1;fontSize=14;" parent="273JVjAkvQsYtaxaopv8-19" vertex="1">
          <mxGeometry y="110" width="180" height="40" as="geometry" />
        </mxCell>
        <mxCell id="273JVjAkvQsYtaxaopv8-22" value="" style="shape=mxgraph.cisco.servers.fileserver;sketch=0;html=1;pointerEvents=1;dashed=0;fillColor=#036897;strokeColor=#ffffff;strokeWidth=2;verticalLabelPosition=bottom;verticalAlign=top;align=center;outlineConnect=0;" parent="273JVjAkvQsYtaxaopv8-19" vertex="1">
          <mxGeometry x="80" y="10" width="63.81" height="92" as="geometry" />
        </mxCell>
        <mxCell id="273JVjAkvQsYtaxaopv8-23" value="" style="group" parent="1" vertex="1" connectable="0">
          <mxGeometry x="120" y="350" width="238" height="150" as="geometry" />
        </mxCell>
        <mxCell id="273JVjAkvQsYtaxaopv8-25" value="Clients/ Serveurs Applicatif" style="shape=note;whiteSpace=wrap;html=1;backgroundOutline=1;fontColor=#000000;darkOpacity=0.05;fillColor=#ffffff;strokeColor=none;fillStyle=solid;direction=west;gradientDirection=north;gradientColor=#ffffff;shadow=1;size=20;pointerEvents=1;fontSize=14;" parent="273JVjAkvQsYtaxaopv8-23" vertex="1">
          <mxGeometry x="20" y="75" width="180" height="40" as="geometry" />
        </mxCell>
        <mxCell id="273JVjAkvQsYtaxaopv8-32" style="edgeStyle=orthogonalEdgeStyle;rounded=0;orthogonalLoop=1;jettySize=auto;html=1;" parent="273JVjAkvQsYtaxaopv8-23" edge="1">
          <mxGeometry relative="1" as="geometry">
            <mxPoint x="96" y="50" as="sourcePoint" />
            <mxPoint x="-60" y="-270" as="targetPoint" />
            <Array as="points">
              <mxPoint x="96" y="120" />
              <mxPoint x="-70" y="120" />
            </Array>
          </mxGeometry>
        </mxCell>
        <mxCell id="273JVjAkvQsYtaxaopv8-38" style="edgeStyle=orthogonalEdgeStyle;rounded=0;orthogonalLoop=1;jettySize=auto;html=1;exitX=1;exitY=0.5;exitDx=0;exitDy=0;exitPerimeter=0;" parent="273JVjAkvQsYtaxaopv8-23" source="273JVjAkvQsYtaxaopv8-36" edge="1">
          <mxGeometry relative="1" as="geometry">
            <mxPoint x="170" y="40" as="targetPoint" />
          </mxGeometry>
        </mxCell>
        <mxCell id="273JVjAkvQsYtaxaopv8-36" value="" style="shape=mxgraph.cisco.computers_and_peripherals.terminal;sketch=0;html=1;pointerEvents=1;dashed=0;fillColor=#036897;strokeColor=#ffffff;strokeWidth=2;verticalLabelPosition=bottom;verticalAlign=top;align=center;outlineConnect=0;" parent="273JVjAkvQsYtaxaopv8-23" vertex="1">
          <mxGeometry x="119" y="12" width="61" height="54" as="geometry" />
        </mxCell>
        <mxCell id="273JVjAkvQsYtaxaopv8-37" value="" style="shape=mxgraph.cisco.computers_and_peripherals.pc;sketch=0;html=1;pointerEvents=1;dashed=0;fillColor=#036897;strokeColor=#ffffff;strokeWidth=2;verticalLabelPosition=bottom;verticalAlign=top;align=center;outlineConnect=0;" parent="273JVjAkvQsYtaxaopv8-23" vertex="1">
          <mxGeometry x="40" width="78" height="70" as="geometry" />
        </mxCell>
        <mxCell id="273JVjAkvQsYtaxaopv8-5" value="" style="group" parent="273JVjAkvQsYtaxaopv8-23" vertex="1" connectable="0">
          <mxGeometry x="-160" y="-430" width="180" height="160" as="geometry" />
        </mxCell>
        <mxCell id="273JVjAkvQsYtaxaopv8-1" value="" style="shape=mxgraph.cisco.servers.fileserver;sketch=0;html=1;pointerEvents=1;dashed=0;fillColor=#036897;strokeColor=#ffffff;strokeWidth=2;verticalLabelPosition=bottom;verticalAlign=top;align=center;outlineConnect=0;" parent="273JVjAkvQsYtaxaopv8-5" vertex="1">
          <mxGeometry x="70" width="63.81" height="98.13333333333333" as="geometry" />
        </mxCell>
        <mxCell id="273JVjAkvQsYtaxaopv8-4" value="&lt;font&gt;Autorité d&#39;enregistrement&amp;nbsp;&lt;br&gt;AE&lt;br&gt;&lt;/font&gt;" style="shape=note;whiteSpace=wrap;html=1;backgroundOutline=1;fontColor=#000000;darkOpacity=0.05;fillColor=#ffffff;strokeColor=none;fillStyle=solid;direction=west;gradientDirection=north;gradientColor=#ffffff;shadow=1;size=20;pointerEvents=1;fontSize=14;" parent="273JVjAkvQsYtaxaopv8-5" vertex="1">
          <mxGeometry y="117.33333333333333" width="180" height="42.666666666666664" as="geometry" />
        </mxCell>
        <mxCell id="273JVjAkvQsYtaxaopv8-6" value="" style="shape=mxgraph.cisco.servers.fileserver;sketch=0;html=1;pointerEvents=1;dashed=0;fillColor=#036897;strokeColor=#ffffff;strokeWidth=2;verticalLabelPosition=bottom;verticalAlign=top;align=center;outlineConnect=0;" parent="273JVjAkvQsYtaxaopv8-5" vertex="1">
          <mxGeometry x="80" y="10.666666666666666" width="63.81" height="98.13333333333333" as="geometry" />
        </mxCell>
        <mxCell id="273JVjAkvQsYtaxaopv8-33" style="edgeStyle=orthogonalEdgeStyle;rounded=0;orthogonalLoop=1;jettySize=auto;html=1;" parent="273JVjAkvQsYtaxaopv8-5" source="273JVjAkvQsYtaxaopv8-6" target="273JVjAkvQsYtaxaopv8-6" edge="1">
          <mxGeometry relative="1" as="geometry">
            <mxPoint x="-10" y="30" as="sourcePoint" />
            <mxPoint x="-366" y="100" as="targetPoint" />
            <Array as="points">
              <mxPoint x="80" y="-50" />
              <mxPoint x="-150" y="-50" />
              <mxPoint x="-150" y="90" />
            </Array>
          </mxGeometry>
        </mxCell>
        <mxCell id="273JVjAkvQsYtaxaopv8-60" style="edgeStyle=orthogonalEdgeStyle;rounded=0;orthogonalLoop=1;jettySize=auto;html=1;exitX=0;exitY=0;exitDx=0;exitDy=0;exitPerimeter=0;entryX=-0.002;entryY=0.225;entryDx=0;entryDy=0;entryPerimeter=0;" parent="273JVjAkvQsYtaxaopv8-23" source="273JVjAkvQsYtaxaopv8-25" target="273JVjAkvQsYtaxaopv8-25" edge="1">
          <mxGeometry relative="1" as="geometry" />
        </mxCell>
        <mxCell id="273JVjAkvQsYtaxaopv8-27" style="edgeStyle=orthogonalEdgeStyle;rounded=0;orthogonalLoop=1;jettySize=auto;html=1;" parent="1" source="273JVjAkvQsYtaxaopv8-6" target="273JVjAkvQsYtaxaopv8-10" edge="1">
          <mxGeometry relative="1" as="geometry">
            <mxPoint x="100" y="-230" as="targetPoint" />
            <Array as="points">
              <mxPoint x="92" y="-184" />
            </Array>
          </mxGeometry>
        </mxCell>
        <mxCell id="273JVjAkvQsYtaxaopv8-28" style="edgeStyle=orthogonalEdgeStyle;rounded=0;orthogonalLoop=1;jettySize=auto;html=1;exitX=0.5;exitY=0;exitDx=0;exitDy=0;exitPerimeter=0;" parent="1" source="273JVjAkvQsYtaxaopv8-9" target="273JVjAkvQsYtaxaopv8-6" edge="1">
          <mxGeometry relative="1" as="geometry">
            <mxPoint x="480" y="-70" as="sourcePoint" />
            <Array as="points">
              <mxPoint x="480" />
            </Array>
          </mxGeometry>
        </mxCell>
        <mxCell id="273JVjAkvQsYtaxaopv8-29" style="edgeStyle=orthogonalEdgeStyle;rounded=0;orthogonalLoop=1;jettySize=auto;html=1;" parent="1" source="273JVjAkvQsYtaxaopv8-10" target="273JVjAkvQsYtaxaopv8-14" edge="1">
          <mxGeometry relative="1" as="geometry" />
        </mxCell>
        <mxCell id="273JVjAkvQsYtaxaopv8-30" style="edgeStyle=orthogonalEdgeStyle;rounded=0;orthogonalLoop=1;jettySize=auto;html=1;entryX=0;entryY=0.5;entryDx=0;entryDy=0;entryPerimeter=0;" parent="1" source="273JVjAkvQsYtaxaopv8-9" target="273JVjAkvQsYtaxaopv8-14" edge="1">
          <mxGeometry relative="1" as="geometry">
            <mxPoint x="700" y="50" as="targetPoint" />
            <Array as="points">
              <mxPoint x="580" y="-110" />
              <mxPoint x="580" y="56" />
            </Array>
          </mxGeometry>
        </mxCell>
        <mxCell id="273JVjAkvQsYtaxaopv8-34" style="edgeStyle=orthogonalEdgeStyle;rounded=0;orthogonalLoop=1;jettySize=auto;html=1;" parent="1" source="273JVjAkvQsYtaxaopv8-6" edge="1">
          <mxGeometry relative="1" as="geometry">
            <mxPoint x="200" y="130" as="sourcePoint" />
            <mxPoint x="250" y="350" as="targetPoint" />
            <Array as="points">
              <mxPoint x="250" y="30" />
            </Array>
          </mxGeometry>
        </mxCell>
        <mxCell id="273JVjAkvQsYtaxaopv8-41" value="" style="edgeStyle=orthogonalEdgeStyle;rounded=0;orthogonalLoop=1;jettySize=auto;html=1;exitX=0.291;exitY=0.008;exitDx=0;exitDy=0;exitPerimeter=0;" parent="1" source="273JVjAkvQsYtaxaopv8-9" target="273JVjAkvQsYtaxaopv8-22" edge="1">
          <mxGeometry relative="1" as="geometry">
            <mxPoint x="518" y="-90" as="sourcePoint" />
            <mxPoint x="600" y="210" as="targetPoint" />
            <Array as="points">
              <mxPoint x="518" y="130" />
              <mxPoint x="740" y="130" />
              <mxPoint x="740" y="356" />
            </Array>
          </mxGeometry>
        </mxCell>
        <mxCell id="273JVjAkvQsYtaxaopv8-40" value="&lt;font style=&quot;font-size: 22px;&quot;&gt;Schéma de la PKI ONESI&amp;nbsp;&lt;/font&gt;" style="text;html=1;align=center;verticalAlign=middle;resizable=0;points=[];autosize=1;strokeColor=none;fillColor=none;" parent="1" vertex="1">
          <mxGeometry x="320" y="180" width="280" height="40" as="geometry" />
        </mxCell>
        <mxCell id="273JVjAkvQsYtaxaopv8-43" value="Envoi du certifcat" style="text;html=1;align=center;verticalAlign=middle;resizable=0;points=[];autosize=1;strokeColor=none;fillColor=none;" parent="1" vertex="1">
          <mxGeometry x="150" y="-210" width="120" height="30" as="geometry" />
        </mxCell>
        <mxCell id="273JVjAkvQsYtaxaopv8-44" value="Demande de Certificat&amp;nbsp;&lt;br&gt;CSR(Certificat Signature Request)" style="text;html=1;align=center;verticalAlign=middle;resizable=0;points=[];autosize=1;strokeColor=none;fillColor=none;rotation=-90;" parent="1" vertex="1">
          <mxGeometry x="-100" y="330" width="210" height="40" as="geometry" />
        </mxCell>
        <mxCell id="273JVjAkvQsYtaxaopv8-46" value="Verification de l&#39;identité &lt;br&gt;du demandeur" style="text;html=1;align=center;verticalAlign=middle;resizable=0;points=[];autosize=1;strokeColor=none;fillColor=none;" parent="1" vertex="1">
          <mxGeometry x="-185" y="-90" width="150" height="40" as="geometry" />
        </mxCell>
        <mxCell id="273JVjAkvQsYtaxaopv8-47" value="Réponse de la CA contenant le certificat signé" style="text;html=1;align=center;verticalAlign=middle;resizable=0;points=[];autosize=1;strokeColor=none;fillColor=none;" parent="1" vertex="1">
          <mxGeometry x="170" y="-30" width="270" height="30" as="geometry" />
        </mxCell>
        <mxCell id="273JVjAkvQsYtaxaopv8-48" value="" style="group" parent="1" vertex="1" connectable="0">
          <mxGeometry x="640" y="-425" width="210" height="170" as="geometry" />
        </mxCell>
        <mxCell id="273JVjAkvQsYtaxaopv8-49" value="" style="shape=mxgraph.cisco.servers.fileserver;sketch=0;html=1;pointerEvents=1;dashed=0;fillColor=#036897;strokeColor=#ffffff;strokeWidth=2;verticalLabelPosition=bottom;verticalAlign=top;align=center;outlineConnect=0;" parent="273JVjAkvQsYtaxaopv8-48" vertex="1">
          <mxGeometry x="38.09" y="18" width="63.81" height="92" as="geometry" />
        </mxCell>
        <mxCell id="273JVjAkvQsYtaxaopv8-50" value="Autorité de Certification intermediaire&lt;br style=&quot;font-size: 14px;&quot;&gt;&lt;font style=&quot;font-size: 14px;&quot;&gt;CA (&lt;i&gt;Let&#39;enscript)&lt;/i&gt;&lt;br&gt;&lt;/font&gt;" style="shape=note;whiteSpace=wrap;html=1;backgroundOutline=1;fontColor=#000000;darkOpacity=0.05;fillColor=#ffffff;strokeColor=none;fillStyle=solid;direction=west;gradientDirection=north;gradientColor=#ffffff;shadow=1;size=20;pointerEvents=1;fontSize=14;" parent="273JVjAkvQsYtaxaopv8-48" vertex="1">
          <mxGeometry x="-70" y="110" width="280" height="60" as="geometry" />
        </mxCell>
        <mxCell id="273JVjAkvQsYtaxaopv8-58" value="Signature du Certificat" style="text;html=1;align=center;verticalAlign=middle;resizable=0;points=[];autosize=1;strokeColor=none;fillColor=none;rotation=-90;" parent="1" vertex="1">
          <mxGeometry x="320" y="-285" width="140" height="30" as="geometry" />
        </mxCell>
        <mxCell id="273JVjAkvQsYtaxaopv8-59" value="Enregistrement du certificat dans l&#39;annuaire" style="text;html=1;align=center;verticalAlign=middle;resizable=0;points=[];autosize=1;strokeColor=none;fillColor=none;rotation=-90;" parent="1" vertex="1">
          <mxGeometry x="595" y="240" width="250" height="30" as="geometry" />
        </mxCell>
        <mxCell id="273JVjAkvQsYtaxaopv8-61" value="Archivage des clés publique du cerficat" style="text;html=1;align=center;verticalAlign=middle;resizable=0;points=[];autosize=1;strokeColor=none;fillColor=none;" parent="1" vertex="1">
          <mxGeometry x="585" y="30" width="230" height="30" as="geometry" />
        </mxCell>
        <mxCell id="273JVjAkvQsYtaxaopv8-62" value="" style="edgeStyle=orthogonalEdgeStyle;rounded=0;orthogonalLoop=1;jettySize=auto;html=1;" parent="1" source="273JVjAkvQsYtaxaopv8-12" target="273JVjAkvQsYtaxaopv8-61" edge="1">
          <mxGeometry relative="1" as="geometry" />
        </mxCell>
        <mxCell id="273JVjAkvQsYtaxaopv8-63" value="Livraisn du Ceritificat" style="text;html=1;align=center;verticalAlign=middle;resizable=0;points=[];autosize=1;strokeColor=none;fillColor=none;rotation=-90;" parent="1" vertex="1">
          <mxGeometry x="160" y="185" width="130" height="30" as="geometry" />
        </mxCell>
        <mxCell id="Ff3WCnOXSEsMJGA7j1lJ-1" value="Text" style="text;html=1;align=center;verticalAlign=middle;resizable=0;points=[];autosize=1;strokeColor=none;fillColor=none;" vertex="1" parent="1">
          <mxGeometry x="-515" y="138" width="50" height="30" as="geometry" />
        </mxCell>
      </root>
    </mxGraphModel>
  </diagram>
  <diagram id="asWLlZ0ZSuKLJvlsnpl6" name="Page-2">
    <mxGraphModel dx="2049" dy="1091" grid="1" gridSize="10" guides="1" tooltips="1" connect="1" arrows="1" fold="1" page="1" pageScale="1" pageWidth="827" pageHeight="1169" math="0" shadow="0">
      <root>
        <mxCell id="0" />
        <mxCell id="1" parent="0" />
        <mxCell id="KiG6bvO5x-idm8gaSkGI-15" style="edgeStyle=orthogonalEdgeStyle;rounded=0;orthogonalLoop=1;jettySize=auto;html=1;exitX=0;exitY=0.75;exitDx=0;exitDy=0;entryX=0.5;entryY=0;entryDx=0;entryDy=0;entryPerimeter=0;" edge="1" parent="1" source="G4mq8JpzQRt2XiNiLq1o-4" target="KiG6bvO5x-idm8gaSkGI-2">
          <mxGeometry relative="1" as="geometry" />
        </mxCell>
        <mxCell id="G4mq8JpzQRt2XiNiLq1o-4" value="" style="image;aspect=fixed;perimeter=ellipsePerimeter;html=1;align=center;shadow=0;dashed=0;spacingTop=3;image=img/lib/active_directory/not_secure.svg;" vertex="1" parent="1">
          <mxGeometry x="526.8" y="870" width="26.4" height="30" as="geometry" />
        </mxCell>
        <mxCell id="G4mq8JpzQRt2XiNiLq1o-15" value="" style="group" vertex="1" connectable="0" parent="1">
          <mxGeometry x="80" y="527" width="120" height="115" as="geometry" />
        </mxCell>
        <mxCell id="G4mq8JpzQRt2XiNiLq1o-2" value="" style="image;aspect=fixed;perimeter=ellipsePerimeter;html=1;align=center;shadow=0;dashed=0;spacingTop=3;image=img/lib/active_directory/domain_controller.svg;" vertex="1" parent="G4mq8JpzQRt2XiNiLq1o-15">
          <mxGeometry x="32" width="56" height="80" as="geometry" />
        </mxCell>
        <mxCell id="G4mq8JpzQRt2XiNiLq1o-9" value="Enregistreur DNS&lt;br&gt;powerdns" style="text;html=1;align=center;verticalAlign=middle;resizable=0;points=[];autosize=1;strokeColor=none;fillColor=none;" vertex="1" parent="G4mq8JpzQRt2XiNiLq1o-15">
          <mxGeometry y="75" width="120" height="40" as="geometry" />
        </mxCell>
        <mxCell id="G4mq8JpzQRt2XiNiLq1o-18" value="" style="group" vertex="1" connectable="0" parent="1">
          <mxGeometry x="650" y="641.9958187287305" width="60" height="52.13418127126948" as="geometry" />
        </mxCell>
        <mxCell id="G4mq8JpzQRt2XiNiLq1o-7" value="" style="image;aspect=fixed;perimeter=ellipsePerimeter;html=1;align=center;shadow=0;dashed=0;spacingTop=3;image=img/lib/active_directory/interface.svg;rotation=-180;" vertex="1" parent="G4mq8JpzQRt2XiNiLq1o-18">
          <mxGeometry x="5" y="2.134181271269483" width="50" height="23.5" as="geometry" />
        </mxCell>
        <mxCell id="G4mq8JpzQRt2XiNiLq1o-14" value="Cerbot" style="text;html=1;align=center;verticalAlign=middle;resizable=0;points=[];autosize=1;strokeColor=none;fillColor=none;" vertex="1" parent="G4mq8JpzQRt2XiNiLq1o-18">
          <mxGeometry y="22.134181271269483" width="60" height="30" as="geometry" />
        </mxCell>
        <mxCell id="G4mq8JpzQRt2XiNiLq1o-21" value="" style="group" vertex="1" connectable="0" parent="1">
          <mxGeometry x="590" y="800" width="190" height="123" as="geometry" />
        </mxCell>
        <mxCell id="G4mq8JpzQRt2XiNiLq1o-19" value="" style="image;aspect=fixed;perimeter=ellipsePerimeter;html=1;align=center;shadow=0;dashed=0;spacingTop=3;image=img/lib/active_directory/generic_server.svg;" vertex="1" parent="G4mq8JpzQRt2XiNiLq1o-21">
          <mxGeometry x="30" width="44.8" height="80" as="geometry" />
        </mxCell>
        <mxCell id="G4mq8JpzQRt2XiNiLq1o-20" value="Serveur Web&amp;nbsp;&lt;br&gt;NGINX" style="text;html=1;align=center;verticalAlign=middle;resizable=0;points=[];autosize=1;strokeColor=none;fillColor=none;" vertex="1" parent="G4mq8JpzQRt2XiNiLq1o-21">
          <mxGeometry y="73" width="100" height="40" as="geometry" />
        </mxCell>
        <mxCell id="KiG6bvO5x-idm8gaSkGI-18" value="securisé" style="text;html=1;align=center;verticalAlign=middle;resizable=0;points=[];autosize=1;strokeColor=none;fillColor=none;" vertex="1" parent="G4mq8JpzQRt2XiNiLq1o-21">
          <mxGeometry x="100" y="46.5" width="70" height="30" as="geometry" />
        </mxCell>
        <mxCell id="G4mq8JpzQRt2XiNiLq1o-5" value="" style="image;aspect=fixed;perimeter=ellipsePerimeter;html=1;align=center;shadow=0;dashed=0;spacingTop=3;image=img/lib/active_directory/secure.svg;" vertex="1" parent="G4mq8JpzQRt2XiNiLq1o-21">
          <mxGeometry x="125.4" y="16.5" width="19.2" height="30" as="geometry" />
        </mxCell>
        <mxCell id="G4mq8JpzQRt2XiNiLq1o-27" style="edgeStyle=orthogonalEdgeStyle;rounded=0;orthogonalLoop=1;jettySize=auto;html=1;entryX=0.5;entryY=0;entryDx=0;entryDy=0;exitX=0.5;exitY=0;exitDx=0;exitDy=0;" edge="1" parent="1" source="G4mq8JpzQRt2XiNiLq1o-28" target="G4mq8JpzQRt2XiNiLq1o-2">
          <mxGeometry relative="1" as="geometry">
            <mxPoint x="190" y="501.9655172413793" as="targetPoint" />
            <mxPoint x="460" y="540" as="sourcePoint" />
            <Array as="points">
              <mxPoint x="745" y="374" />
              <mxPoint x="745" y="350" />
              <mxPoint x="140" y="350" />
            </Array>
          </mxGeometry>
        </mxCell>
        <mxCell id="G4mq8JpzQRt2XiNiLq1o-29" value="Verification du nom de domaine&lt;br&gt;Par challenge DNS" style="edgeLabel;html=1;align=center;verticalAlign=middle;resizable=0;points=[];" vertex="1" connectable="0" parent="G4mq8JpzQRt2XiNiLq1o-27">
          <mxGeometry x="0.3041" relative="1" as="geometry">
            <mxPoint x="103" as="offset" />
          </mxGeometry>
        </mxCell>
        <mxCell id="G4mq8JpzQRt2XiNiLq1o-34" style="edgeStyle=orthogonalEdgeStyle;rounded=0;orthogonalLoop=1;jettySize=auto;html=1;exitX=1;exitY=0.5;exitDx=0;exitDy=0;entryX=1;entryY=0.25;entryDx=0;entryDy=0;" edge="1" parent="1" source="G4mq8JpzQRt2XiNiLq1o-28" target="G4mq8JpzQRt2XiNiLq1o-7">
          <mxGeometry relative="1" as="geometry">
            <mxPoint x="650" y="660" as="targetPoint" />
            <Array as="points">
              <mxPoint x="759" y="399" />
              <mxPoint x="759" y="425" />
              <mxPoint x="820" y="425" />
              <mxPoint x="820" y="720" />
              <mxPoint x="590" y="720" />
              <mxPoint x="590" y="660" />
              <mxPoint x="658" y="660" />
            </Array>
          </mxGeometry>
        </mxCell>
        <mxCell id="G4mq8JpzQRt2XiNiLq1o-35" value="Echec&amp;nbsp; de demande" style="edgeLabel;html=1;align=center;verticalAlign=middle;resizable=0;points=[];fontColor=#ff0f0f;" vertex="1" connectable="0" parent="G4mq8JpzQRt2XiNiLq1o-34">
          <mxGeometry x="0.1345" y="2" relative="1" as="geometry">
            <mxPoint x="46" y="-117" as="offset" />
          </mxGeometry>
        </mxCell>
        <mxCell id="G4mq8JpzQRt2XiNiLq1o-30" style="edgeStyle=orthogonalEdgeStyle;rounded=0;orthogonalLoop=1;jettySize=auto;html=1;entryX=0;entryY=0.5;entryDx=0;entryDy=0;" edge="1" parent="1" source="G4mq8JpzQRt2XiNiLq1o-2" target="G4mq8JpzQRt2XiNiLq1o-28">
          <mxGeometry relative="1" as="geometry">
            <mxPoint x="640.6369030760787" y="374.13" as="targetPoint" />
            <mxPoint x="69.99541378632435" y="544.13" as="sourcePoint" />
            <Array as="points">
              <mxPoint x="530" y="554" />
              <mxPoint x="530" y="399" />
            </Array>
          </mxGeometry>
        </mxCell>
        <mxCell id="G4mq8JpzQRt2XiNiLq1o-31" value="Reponse du powwer dns" style="edgeLabel;html=1;align=center;verticalAlign=middle;resizable=0;points=[];" vertex="1" connectable="0" parent="G4mq8JpzQRt2XiNiLq1o-30">
          <mxGeometry x="-0.124" y="2" relative="1" as="geometry">
            <mxPoint x="-91" as="offset" />
          </mxGeometry>
        </mxCell>
        <mxCell id="v0_ZE8sxZRNNFrTPTTeX-4" value="" style="group" vertex="1" connectable="0" parent="1">
          <mxGeometry x="720" y="374.13" width="700" height="320" as="geometry" />
        </mxCell>
        <mxCell id="G4mq8JpzQRt2XiNiLq1o-28" value="" style="image;aspect=fixed;perimeter=ellipsePerimeter;html=1;align=center;shadow=0;dashed=0;spacingTop=3;image=img/lib/active_directory/generic_server.svg;" vertex="1" parent="v0_ZE8sxZRNNFrTPTTeX-4">
          <mxGeometry x="41" width="28.000000000000004" height="50" as="geometry" />
        </mxCell>
        <mxCell id="G4mq8JpzQRt2XiNiLq1o-36" value="Autororité&amp;nbsp;&lt;br&gt;d&#39;enregistrement" style="text;html=1;align=center;verticalAlign=middle;resizable=0;points=[];autosize=1;strokeColor=none;fillColor=none;" vertex="1" parent="v0_ZE8sxZRNNFrTPTTeX-4">
          <mxGeometry x="-10" y="50" width="110" height="40" as="geometry" />
        </mxCell>
        <mxCell id="G4mq8JpzQRt2XiNiLq1o-16" value="" style="group;fillColor=default;" vertex="1" connectable="0" parent="v0_ZE8sxZRNNFrTPTTeX-4">
          <mxGeometry x="210" y="15.870000000000005" width="490" height="280" as="geometry" />
        </mxCell>
        <mxCell id="KAd8rdP-nW13JtQBqkiv-2" style="edgeStyle=orthogonalEdgeStyle;rounded=0;orthogonalLoop=1;jettySize=auto;html=1;" edge="1" parent="G4mq8JpzQRt2XiNiLq1o-16" source="G4mq8JpzQRt2XiNiLq1o-6">
          <mxGeometry relative="1" as="geometry">
            <mxPoint x="100" y="70" as="targetPoint" />
            <Array as="points">
              <mxPoint x="50" y="220" />
              <mxPoint x="200" y="220" />
              <mxPoint x="200" y="30" />
              <mxPoint x="100" y="30" />
            </Array>
          </mxGeometry>
        </mxCell>
        <mxCell id="KAd8rdP-nW13JtQBqkiv-3" value="Signature de certificat" style="edgeLabel;html=1;align=center;verticalAlign=middle;resizable=0;points=[];" vertex="1" connectable="0" parent="KAd8rdP-nW13JtQBqkiv-2">
          <mxGeometry x="-0.2579" y="1" relative="1" as="geometry">
            <mxPoint as="offset" />
          </mxGeometry>
        </mxCell>
        <mxCell id="G4mq8JpzQRt2XiNiLq1o-6" value="" style="image;aspect=fixed;perimeter=ellipsePerimeter;html=1;align=center;shadow=0;dashed=0;spacingTop=3;image=img/lib/active_directory/web_server.svg;" vertex="1" parent="G4mq8JpzQRt2XiNiLq1o-16">
          <mxGeometry x="38" width="64" height="80" as="geometry" />
        </mxCell>
        <mxCell id="G4mq8JpzQRt2XiNiLq1o-10" value="Auorité de Certification&lt;br&gt;" style="text;html=1;align=center;verticalAlign=middle;resizable=0;points=[];autosize=1;strokeColor=none;fillColor=none;" vertex="1" parent="G4mq8JpzQRt2XiNiLq1o-16">
          <mxGeometry y="85" width="140" height="30" as="geometry" />
        </mxCell>
        <mxCell id="G4mq8JpzQRt2XiNiLq1o-3" value="" style="image;aspect=fixed;perimeter=ellipsePerimeter;html=1;align=center;shadow=0;dashed=0;spacingTop=3;image=img/lib/active_directory/key.svg;" vertex="1" parent="G4mq8JpzQRt2XiNiLq1o-16">
          <mxGeometry x="120" y="187" width="37.84" height="28" as="geometry" />
        </mxCell>
        <mxCell id="v0_ZE8sxZRNNFrTPTTeX-6" style="edgeStyle=orthogonalEdgeStyle;rounded=0;orthogonalLoop=1;jettySize=auto;html=1;exitX=0;exitY=0.25;exitDx=0;exitDy=0;entryX=0;entryY=0.5;entryDx=0;entryDy=0;" edge="1" parent="G4mq8JpzQRt2XiNiLq1o-16" source="G4mq8JpzQRt2XiNiLq1o-3" target="G4mq8JpzQRt2XiNiLq1o-3">
          <mxGeometry relative="1" as="geometry" />
        </mxCell>
        <mxCell id="KiG6bvO5x-idm8gaSkGI-26" value="" style="shape=ext;double=1;rounded=0;whiteSpace=wrap;html=1;strokeColor=#d79b00;fillColor=#ffe6cc;fillStyle=auto;opacity=10;strokeWidth=4;" vertex="1" parent="G4mq8JpzQRt2XiNiLq1o-16">
          <mxGeometry x="-230" y="-90" width="570" height="370" as="geometry" />
        </mxCell>
        <mxCell id="G4mq8JpzQRt2XiNiLq1o-32" style="edgeStyle=orthogonalEdgeStyle;rounded=0;orthogonalLoop=1;jettySize=auto;html=1;exitX=1;exitY=0.25;exitDx=0;exitDy=0;entryX=0;entryY=0.25;entryDx=0;entryDy=0;" edge="1" parent="v0_ZE8sxZRNNFrTPTTeX-4" source="G4mq8JpzQRt2XiNiLq1o-28" target="G4mq8JpzQRt2XiNiLq1o-6">
          <mxGeometry relative="1" as="geometry">
            <Array as="points">
              <mxPoint x="68" y="-44" />
              <mxPoint x="251" y="-44" />
            </Array>
          </mxGeometry>
        </mxCell>
        <mxCell id="G4mq8JpzQRt2XiNiLq1o-33" value="Succes" style="edgeLabel;html=1;align=center;verticalAlign=middle;resizable=0;points=[];fontColor=#006600;" vertex="1" connectable="0" parent="G4mq8JpzQRt2XiNiLq1o-32">
          <mxGeometry x="-0.1779" y="1" relative="1" as="geometry">
            <mxPoint as="offset" />
          </mxGeometry>
        </mxCell>
        <mxCell id="v0_ZE8sxZRNNFrTPTTeX-5" style="edgeStyle=orthogonalEdgeStyle;rounded=0;orthogonalLoop=1;jettySize=auto;html=1;exitX=0.75;exitY=1;exitDx=0;exitDy=0;" edge="1" parent="1" source="KiG6bvO5x-idm8gaSkGI-30" target="G4mq8JpzQRt2XiNiLq1o-28">
          <mxGeometry relative="1" as="geometry">
            <mxPoint x="740" y="340" as="targetPoint" />
            <mxPoint x="630" y="600" as="sourcePoint" />
            <Array as="points">
              <mxPoint x="650" y="410" />
            </Array>
          </mxGeometry>
        </mxCell>
        <mxCell id="KiG6bvO5x-idm8gaSkGI-2" value="non securisé" style="text;html=1;align=center;verticalAlign=middle;resizable=0;points=[];autosize=1;strokeColor=none;fillColor=none;" vertex="1" parent="1">
          <mxGeometry x="495" y="900" width="90" height="30" as="geometry" />
        </mxCell>
        <mxCell id="KiG6bvO5x-idm8gaSkGI-11" value="" style="image;aspect=fixed;perimeter=ellipsePerimeter;html=1;align=center;shadow=0;dashed=0;spacingTop=3;image=img/lib/active_directory/key.svg;" vertex="1" parent="1">
          <mxGeometry x="758.66" y="893" width="40.54" height="30" as="geometry" />
        </mxCell>
        <mxCell id="KiG6bvO5x-idm8gaSkGI-13" style="edgeStyle=orthogonalEdgeStyle;rounded=0;orthogonalLoop=1;jettySize=auto;html=1;exitX=0.75;exitY=0;exitDx=0;exitDy=0;entryX=0.722;entryY=-0.108;entryDx=0;entryDy=0;entryPerimeter=0;" edge="1" parent="1" source="G4mq8JpzQRt2XiNiLq1o-6" target="G4mq8JpzQRt2XiNiLq1o-20">
          <mxGeometry relative="1" as="geometry">
            <mxPoint x="900" y="860" as="targetPoint" />
            <Array as="points">
              <mxPoint x="940" y="394" />
              <mxPoint x="940" y="930" />
              <mxPoint x="672" y="930" />
              <mxPoint x="672" y="869" />
            </Array>
          </mxGeometry>
        </mxCell>
        <mxCell id="KiG6bvO5x-idm8gaSkGI-14" value="Copie du certificat signé" style="edgeLabel;html=1;align=center;verticalAlign=middle;resizable=0;points=[];" vertex="1" connectable="0" parent="KiG6bvO5x-idm8gaSkGI-13">
          <mxGeometry x="0.5626" relative="1" as="geometry">
            <mxPoint as="offset" />
          </mxGeometry>
        </mxCell>
        <mxCell id="KiG6bvO5x-idm8gaSkGI-28" value="STEP-CA" style="text;html=1;align=center;verticalAlign=middle;resizable=0;points=[];autosize=1;strokeColor=none;fillColor=none;fontSize=27;" vertex="1" parent="1">
          <mxGeometry x="988.92" y="320" width="140" height="50" as="geometry" />
        </mxCell>
        <mxCell id="KiG6bvO5x-idm8gaSkGI-32" value="" style="edgeStyle=orthogonalEdgeStyle;rounded=0;orthogonalLoop=1;jettySize=auto;html=1;exitX=0.75;exitY=1;exitDx=0;exitDy=0;entryX=-0.033;entryY=0.667;entryDx=0;entryDy=0;entryPerimeter=0;" edge="1" parent="1" source="G4mq8JpzQRt2XiNiLq1o-7" target="KiG6bvO5x-idm8gaSkGI-30">
          <mxGeometry relative="1" as="geometry">
            <mxPoint x="762" y="410" as="targetPoint" />
            <mxPoint x="629" y="645" as="sourcePoint" />
            <Array as="points">
              <mxPoint x="650" y="645" />
            </Array>
          </mxGeometry>
        </mxCell>
        <mxCell id="KiG6bvO5x-idm8gaSkGI-30" value="Generation de certificat" style="text;html=1;align=center;verticalAlign=middle;resizable=0;points=[];autosize=1;strokeColor=none;fillColor=none;rotation=-90;" vertex="1" parent="1">
          <mxGeometry x="570" y="515" width="150" height="30" as="geometry" />
        </mxCell>
      </root>
    </mxGraphModel>
  </diagram>
</mxfile>
